. 
 
http://www.torrenting.com          :     Once & For all ;)


               www . Torrenting . Com 

(((((((((((((= Enjoy No RAR releases =))))))))))))))))))))


...................................NFO:....................................

.[size=3][color=#009999]



           Immortals 2011 DVDScr XVID AC3 V1 - SPEEDY



IMDB: http://www.imdb.com/title/tt1253864/[/color][/size]


[size=3]
[color=#CC9933]General


Complete name                    : Immortals 2011 DVDScr XVID AC3 - SPEEDY.avi
Format                           : AVI
Format/Info                      : Audio Video Interleave
File size                        : 1.22 GiB
Duration                         : 1h 42mn
Overall bit rate                 : 1 702 Kbps[/color][/size]




[size=3][color=#669900]
Video

ID                               : 0
Format                           : MPEG-4 Visual
Format profile                   : Advanced Simple@L5
Format settings, BVOP            : 2
Format settings, QPel            : No
Format settings, GMC             : No warppoints
Format settings, Matrix          : Default (H.263)
Muxing mode                      : Packed bitstream
Codec ID                         : XVID
Codec ID/Hint                    : XviD
Duration                         : 1h 42mn
Bit rate                         : 1 498 Kbps
Width                            : 704 pixels
Height                           : 334 pixels
Display aspect ratio             : 2.2:1
Frame rate                       : 29.970 fps
Color space                      : YUV
Chroma subsampling               : 4:2:0
Bit depth                        : 8 bits
Scan type                        : Progressive
Compression mode                 : Lossy
Bits/(Pixel*Frame)               : 0.213
Stream size                      : 1.08 GiB (88%)[/color][/size]







[size=3][color=#009900]Audio

ID                               : 1
Format                           : AC-3
Format/Info                      : Audio Coding 3
Mode extension                   : CM (complete main)
Codec ID                         : 2000
Duration                         : 1h 42mn
Bit rate mode                    : Constant
Bit rate                         : 192 Kbps
Channel(s)                       : 2 channels
Channel positions                : Front: L R
Sampling rate                    : 48.0 KHz
Bit depth                        : 16 bits
Compression mode                 : Lossy
Stream size                      : 141 MiB (11%)
Alignment                        : Aligned on interleaves
Interleave, duration             : 33 ms (1.00 video frame)
Interleave, preload duration     : 512 ms[/color][/size]






[size=3][color=#0099CC]PLOT
 
 Storyline

Eons after the Gods won their mythic struggle against the Titans, a new evil threatens the land. Mad with power, King Hyperion (Mickey Rourke) has declared war against humanity. Amassing a bloodthirsty army of soldiers disfigured by his own hand, Hyperion has scorched Greece in search of the legendary Epirus Bow, a weapon of unimaginable power forged in the heavens by Ares. Only he who possesses this bow can unleash the Titans, who have been imprisoned deep within the walls of Mount Tartaros since the dawn of time and thirst for revenge. In the king's hands, the bow would rain destruction upon mankind and annihilate the Gods. But ancient law dictates the Gods must not intervene in man's conflict. They remain powerless to stop Hyperion...until a peasant named Theseus (Henry Cavill) comes forth as their only hope. Secretly chosen by Zeus, Theseus must save his people from Hyperion and his hordes... Written by Anonymous     [/color][/size]


[size=3][color=#CC6600]Genres: Action | Drama | Fantasy   


Director: Tarsem Singh

Writers: Charley Parlapanides, Vlas Parlapanides

Stars: Henry Cavill, Mickey Rourke and John Hurt [/color][/size]



[size=3][color=#6699FF]
SOURCE
Video : Immortals 2011 DVDScr READNFO XviD AC3-ZJM
Audio : Immortals 2011 DVDScr READNFO XviD AC3-ZJM


SCREEN TOUCH UP:  Tweak(hue / sat / bright / cont / Sharpen :)

I CROPPED  n colour mix n colour bal to :)[/color][/size]




[size=3][color=#996600]IF YOU ENJOY THIS PLEAS REP ME ENJOY FOLKS :)[/color][/size]


[size=3][color=#FF9900]
SCREENS:





GREETS:

 TO ALL P2P GROUPS :)[/color][/size]